<mxfile host="65bd71144e">
    <diagram id="g5spBLx_vvhdmmsODNRa" name="UML">
        <mxGraphModel dx="1910" dy="478" grid="1" gridSize="10" guides="1" tooltips="1" connect="1" arrows="1" fold="1" page="1" pageScale="1" pageWidth="850" pageHeight="1100" math="0" shadow="0">
            <root>
                <mxCell id="0"/>
                <mxCell id="1" parent="0"/>
                <mxCell id="2" value="Pelicula" style="swimlane;fontStyle=1;align=center;verticalAlign=top;childLayout=stackLayout;horizontal=1;startSize=26;horizontalStack=0;resizeParent=1;resizeParentMax=0;resizeLast=0;collapsible=1;marginBottom=0;" parent="1" vertex="1">
                    <mxGeometry x="630" y="565" width="430" height="270" as="geometry"/>
                </mxCell>
                <mxCell id="3" value="- id: string&#10;- nombre_pelicula: string&#10;- duracion: int &#10;- genero: string&#10;- calificacion: double&#10;- fecha_estreno: string" style="text;strokeColor=none;fillColor=none;align=left;verticalAlign=top;spacingLeft=4;spacingRight=4;overflow=hidden;rotatable=0;points=[[0,0.5],[1,0.5]];portConstraint=eastwest;" parent="2" vertex="1">
                    <mxGeometry y="26" width="430" height="104" as="geometry"/>
                </mxCell>
                <mxCell id="4" value="" style="line;strokeWidth=1;fillColor=none;align=left;verticalAlign=middle;spacingTop=-1;spacingLeft=3;spacingRight=3;rotatable=0;labelPosition=right;points=[];portConstraint=eastwest;" parent="2" vertex="1">
                    <mxGeometry y="130" width="430" height="8" as="geometry"/>
                </mxCell>
                <mxCell id="5" value="+ Pelicula ( )&#10;+ Pelicula (id, nombre_pelicula. duracion, genero, calificacion, fecha_estreno)&#10;+ getID( ): string&#10;+ getNomPeli(): string&#10;+ getDuracion(): int&#10;+ getGenero():string&#10;+ getCalifPeli(): double&#10;+ getFechaE(): string&#10;" style="text;strokeColor=none;fillColor=none;align=left;verticalAlign=top;spacingLeft=4;spacingRight=4;overflow=hidden;rotatable=0;points=[[0,0.5],[1,0.5]];portConstraint=eastwest;" parent="2" vertex="1">
                    <mxGeometry y="138" width="430" height="132" as="geometry"/>
                </mxCell>
                <mxCell id="6" value="Serie" style="swimlane;fontStyle=1;align=center;verticalAlign=top;childLayout=stackLayout;horizontal=1;startSize=26;horizontalStack=0;resizeParent=1;resizeParentMax=0;resizeLast=0;collapsible=1;marginBottom=0;" parent="1" vertex="1">
                    <mxGeometry x="35" y="565" width="390" height="280" as="geometry"/>
                </mxCell>
                <mxCell id="7" value="-episodio: vector &lt;Episodio&gt;&#10;-id_serie: string&#10;-nombre_serie: string&#10;-genero_serie: string" style="text;strokeColor=none;fillColor=none;align=left;verticalAlign=top;spacingLeft=4;spacingRight=4;overflow=hidden;rotatable=0;points=[[0,0.5],[1,0.5]];portConstraint=eastwest;" parent="6" vertex="1">
                    <mxGeometry y="26" width="390" height="94" as="geometry"/>
                </mxCell>
                <mxCell id="8" value="" style="line;strokeWidth=1;fillColor=none;align=left;verticalAlign=middle;spacingTop=-1;spacingLeft=3;spacingRight=3;rotatable=0;labelPosition=right;points=[];portConstraint=eastwest;" parent="6" vertex="1">
                    <mxGeometry y="120" width="390" height="8" as="geometry"/>
                </mxCell>
                <mxCell id="9" value="+ Serie()&#10;+ Serie(idSerie:str, nombreSerie:str, generoSerie:str)&#10;+ getIdSerie():string&#10;+ getNombreSerie():string&#10;+ getGeneroSerie():string&#10;&#10;" style="text;strokeColor=none;fillColor=none;align=left;verticalAlign=top;spacingLeft=4;spacingRight=4;overflow=hidden;rotatable=0;points=[[0,0.5],[1,0.5]];portConstraint=eastwest;" parent="6" vertex="1">
                    <mxGeometry y="128" width="390" height="152" as="geometry"/>
                </mxCell>
                <mxCell id="18" value="Streaming" style="swimlane;fontStyle=1;align=center;verticalAlign=top;childLayout=stackLayout;horizontal=1;startSize=26;horizontalStack=0;resizeParent=1;resizeParentMax=0;resizeLast=0;collapsible=1;marginBottom=0;" parent="1" vertex="1">
                    <mxGeometry x="290" width="400" height="280" as="geometry"/>
                </mxCell>
                <mxCell id="19" value="- Catálogo: Catálogo&#10;- nombre_plataforma: string&#10;- nombre_usuario: string&#10;- correo: string&#10;- contrasena: string " style="text;strokeColor=none;fillColor=none;align=left;verticalAlign=top;spacingLeft=4;spacingRight=4;overflow=hidden;rotatable=0;points=[[0,0.5],[1,0.5]];portConstraint=eastwest;" parent="18" vertex="1">
                    <mxGeometry y="26" width="400" height="94" as="geometry"/>
                </mxCell>
                <mxCell id="20" value="" style="line;strokeWidth=1;fillColor=none;align=left;verticalAlign=middle;spacingTop=-1;spacingLeft=3;spacingRight=3;rotatable=0;labelPosition=right;points=[];portConstraint=eastwest;" parent="18" vertex="1">
                    <mxGeometry y="120" width="400" height="8" as="geometry"/>
                </mxCell>
                <mxCell id="21" value="+ Streaming( )&#10;+ Streaming (nombre_plataforma, nombre_usuario_correo, contrasena)&#10;+getNombPlat(): string&#10;+getNombUsua ():string&#10;+getCorreo ():string&#10;+getContra ():string&#10;+setNombPlat( string plataforma):void&#10;+setNombUsua (string usuario):void&#10;+setCorreo (string correo):void&#10;+setContra (string contras):void" style="text;strokeColor=none;fillColor=none;align=left;verticalAlign=top;spacingLeft=4;spacingRight=4;overflow=hidden;rotatable=0;points=[[0,0.5],[1,0.5]];portConstraint=eastwest;" parent="18" vertex="1">
                    <mxGeometry y="128" width="400" height="152" as="geometry"/>
                </mxCell>
                <mxCell id="29" value="" style="endArrow=diamondThin;endFill=0;endSize=24;html=1;entryX=0;entryY=0.5;entryDx=0;entryDy=0;" parent="1" edge="1" target="34">
                    <mxGeometry width="160" relative="1" as="geometry">
                        <mxPoint x="235" y="565" as="sourcePoint"/>
                        <mxPoint x="395" y="445" as="targetPoint"/>
                    </mxGeometry>
                </mxCell>
                <mxCell id="30" value="" style="endArrow=diamondThin;endFill=0;endSize=24;html=1;exitX=0.5;exitY=0;exitDx=0;exitDy=0;entryX=1;entryY=0.5;entryDx=0;entryDy=0;" parent="1" source="2" target="34" edge="1">
                    <mxGeometry width="160" relative="1" as="geometry">
                        <mxPoint x="400" y="580" as="sourcePoint"/>
                        <mxPoint x="580" y="440" as="targetPoint"/>
                        <Array as="points"/>
                    </mxGeometry>
                </mxCell>
                <mxCell id="31" value="" style="endArrow=diamondThin;endFill=0;endSize=24;html=1;entryX=0.481;entryY=0.995;entryDx=0;entryDy=0;entryPerimeter=0;exitX=0.5;exitY=0;exitDx=0;exitDy=0;" parent="1" source="38" target="9" edge="1">
                    <mxGeometry width="160" relative="1" as="geometry">
                        <mxPoint x="220" y="930" as="sourcePoint"/>
                        <mxPoint x="360" y="880" as="targetPoint"/>
                    </mxGeometry>
                </mxCell>
                <mxCell id="32" value="" style="endArrow=diamondThin;endFill=0;endSize=24;html=1;exitX=0.5;exitY=0;exitDx=0;exitDy=0;entryX=0.499;entryY=1.007;entryDx=0;entryDy=0;entryPerimeter=0;" parent="1" target="21" edge="1" source="34">
                    <mxGeometry width="160" relative="1" as="geometry">
                        <mxPoint x="490" y="380" as="sourcePoint"/>
                        <mxPoint x="500" y="280" as="targetPoint"/>
                    </mxGeometry>
                </mxCell>
                <mxCell id="34" value="&lt;p style=&quot;margin: 0px ; margin-top: 4px ; text-align: center&quot;&gt;&lt;b&gt;Catalogo&lt;/b&gt;&lt;/p&gt;&lt;hr size=&quot;1&quot;&gt;&lt;p style=&quot;margin: 0px ; margin-left: 4px&quot;&gt;- lista_peliculas: vector &amp;lt;Peliculas&amp;gt;&lt;/p&gt;&lt;p style=&quot;margin: 0px ; margin-left: 4px&quot;&gt;- lista_series_ vector &amp;gt;Series&amp;gt;&lt;/p&gt;&lt;hr size=&quot;1&quot;&gt;&lt;p style=&quot;margin: 0px ; margin-left: 4px&quot;&gt;+ agregarSeries(Serie s):void&amp;nbsp;&lt;/p&gt;&lt;p style=&quot;margin: 0px ; margin-left: 4px&quot;&gt;+ agregarPelicula(pelicula p): void&lt;/p&gt;&lt;p style=&quot;margin: 0px ; margin-left: 4px&quot;&gt;+ display():void&amp;nbsp;&lt;/p&gt;" style="verticalAlign=top;align=left;overflow=fill;fontSize=12;fontFamily=Helvetica;html=1;" parent="1" vertex="1">
                    <mxGeometry x="395" y="390" width="190" height="130" as="geometry"/>
                </mxCell>
                <mxCell id="38" value="Episodio" style="swimlane;fontStyle=1;align=center;verticalAlign=top;childLayout=stackLayout;horizontal=1;startSize=26;horizontalStack=0;resizeParent=1;resizeParentMax=0;resizeLast=0;collapsible=1;marginBottom=0;" vertex="1" parent="1">
                    <mxGeometry x="-30" y="930" width="520" height="160" as="geometry"/>
                </mxCell>
                <mxCell id="39" value="- temporada: int&#10;-  numEp : int&#10;" style="text;strokeColor=none;fillColor=none;align=left;verticalAlign=top;spacingLeft=4;spacingRight=4;overflow=hidden;rotatable=0;points=[[0,0.5],[1,0.5]];portConstraint=eastwest;" vertex="1" parent="38">
                    <mxGeometry y="26" width="520" height="44" as="geometry"/>
                </mxCell>
                <mxCell id="40" value="" style="line;strokeWidth=1;fillColor=none;align=left;verticalAlign=middle;spacingTop=-1;spacingLeft=3;spacingRight=3;rotatable=0;labelPosition=right;points=[];portConstraint=eastwest;" vertex="1" parent="38">
                    <mxGeometry y="70" width="520" height="8" as="geometry"/>
                </mxCell>
                <mxCell id="41" value="+ Episodio ( )&#10;+ Episodio (calificacion_ep, fechaEst_ep, nombre_ep, temporada_ep, numEpe_ep, id_ep)&#10;+ getTemp(): int&#10;+ getNoEp(): int&#10;+ display(): void&#10;" style="text;strokeColor=none;fillColor=none;align=left;verticalAlign=top;spacingLeft=4;spacingRight=4;overflow=hidden;rotatable=0;points=[[0,0.5],[1,0.5]];portConstraint=eastwest;" vertex="1" parent="38">
                    <mxGeometry y="78" width="520" height="82" as="geometry"/>
                </mxCell>
            </root>
        </mxGraphModel>
    </diagram>
    <diagram id="M7OhMWJQaxeYg0EjF2d1" name="UML herencia">
        <mxGraphModel dx="1060" dy="1647" grid="1" gridSize="10" guides="1" tooltips="1" connect="1" arrows="1" fold="1" page="1" pageScale="1" pageWidth="827" pageHeight="1169" math="0" shadow="0">
            <root>
                <mxCell id="FiDUl4p-JCGd17M9LX08-0"/>
                <mxCell id="FiDUl4p-JCGd17M9LX08-1" parent="FiDUl4p-JCGd17M9LX08-0"/>
                <mxCell id="y2TpvjQaVLHb-VL8xuH1-0" value="Streaming" style="swimlane;fontStyle=1;align=center;verticalAlign=top;childLayout=stackLayout;horizontal=1;startSize=26;horizontalStack=0;resizeParent=1;resizeParentMax=0;resizeLast=0;collapsible=1;marginBottom=0;" parent="FiDUl4p-JCGd17M9LX08-1" vertex="1">
                    <mxGeometry x="360" y="-40" width="400" height="310" as="geometry"/>
                </mxCell>
                <mxCell id="y2TpvjQaVLHb-VL8xuH1-1" value="- Catálogo: Catálogo&#10;- nombre_plataforma: string&#10;- nombre_usuario: string&#10;- correo: string&#10;- contrasena: string " style="text;strokeColor=none;fillColor=none;align=left;verticalAlign=top;spacingLeft=4;spacingRight=4;overflow=hidden;rotatable=0;points=[[0,0.5],[1,0.5]];portConstraint=eastwest;" parent="y2TpvjQaVLHb-VL8xuH1-0" vertex="1">
                    <mxGeometry y="26" width="400" height="94" as="geometry"/>
                </mxCell>
                <mxCell id="y2TpvjQaVLHb-VL8xuH1-2" value="" style="line;strokeWidth=1;fillColor=none;align=left;verticalAlign=middle;spacingTop=-1;spacingLeft=3;spacingRight=3;rotatable=0;labelPosition=right;points=[];portConstraint=eastwest;" parent="y2TpvjQaVLHb-VL8xuH1-0" vertex="1">
                    <mxGeometry y="120" width="400" height="8" as="geometry"/>
                </mxCell>
                <mxCell id="y2TpvjQaVLHb-VL8xuH1-3" value="+ Streaming( )&#10;+ Streaming (nombre_plataforma, nombre_usuario_correo, contrasena)&#10;&#10;+getNombPlat(): string&#10;+getNombUsua ():string&#10;+getCorreo ():string&#10;+getContra ():string&#10;+setNombPlat( string plataforma):void&#10;+setNombUsua (string usuario):void&#10;+setCorreo (string correo):void&#10;+setContra (string contras):void" style="text;strokeColor=none;fillColor=none;align=left;verticalAlign=top;spacingLeft=4;spacingRight=4;overflow=hidden;rotatable=0;points=[[0,0.5],[1,0.5]];portConstraint=eastwest;" parent="y2TpvjQaVLHb-VL8xuH1-0" vertex="1">
                    <mxGeometry y="128" width="400" height="182" as="geometry"/>
                </mxCell>
                <mxCell id="GW1StQTnTIdHxi2I7VkY-0" value="Episodio" style="swimlane;fontStyle=1;align=center;verticalAlign=top;childLayout=stackLayout;horizontal=1;startSize=26;horizontalStack=0;resizeParent=1;resizeParentMax=0;resizeLast=0;collapsible=1;marginBottom=0;" parent="FiDUl4p-JCGd17M9LX08-1" vertex="1">
                    <mxGeometry x="40" y="820" width="460" height="150" as="geometry"/>
                </mxCell>
                <mxCell id="GW1StQTnTIdHxi2I7VkY-1" value="- temporada: int&#10;-  numEp : int&#10;" style="text;strokeColor=none;fillColor=none;align=left;verticalAlign=top;spacingLeft=4;spacingRight=4;overflow=hidden;rotatable=0;points=[[0,0.5],[1,0.5]];portConstraint=eastwest;" parent="GW1StQTnTIdHxi2I7VkY-0" vertex="1">
                    <mxGeometry y="26" width="460" height="44" as="geometry"/>
                </mxCell>
                <mxCell id="GW1StQTnTIdHxi2I7VkY-2" value="" style="line;strokeWidth=1;fillColor=none;align=left;verticalAlign=middle;spacingTop=-1;spacingLeft=3;spacingRight=3;rotatable=0;labelPosition=right;points=[];portConstraint=eastwest;" parent="GW1StQTnTIdHxi2I7VkY-0" vertex="1">
                    <mxGeometry y="70" width="460" height="8" as="geometry"/>
                </mxCell>
                <mxCell id="GW1StQTnTIdHxi2I7VkY-3" value="+ Episodio ( )&#10;+ Episodio (calificacion_ep, fechaEst_ep nombre_ep, temporada, numEp, id_ep)&#10;+ getTemp(): int&#10;+ getNoEp(): int&#10;" style="text;strokeColor=none;fillColor=none;align=left;verticalAlign=top;spacingLeft=4;spacingRight=4;overflow=hidden;rotatable=0;points=[[0,0.5],[1,0.5]];portConstraint=eastwest;" parent="GW1StQTnTIdHxi2I7VkY-0" vertex="1">
                    <mxGeometry y="78" width="460" height="72" as="geometry"/>
                </mxCell>
                <mxCell id="mvdX4LRs8X7vJDpDzA3B-0" value="Pelicula" style="swimlane;fontStyle=1;align=center;verticalAlign=top;childLayout=stackLayout;horizontal=1;startSize=26;horizontalStack=0;resizeParent=1;resizeParentMax=0;resizeLast=0;collapsible=1;marginBottom=0;" parent="FiDUl4p-JCGd17M9LX08-1" vertex="1">
                    <mxGeometry x="650" y="780" width="430" height="170" as="geometry"/>
                </mxCell>
                <mxCell id="mvdX4LRs8X7vJDpDzA3B-1" value="- duracion: int &#10;- genero: string&#10;" style="text;strokeColor=none;fillColor=none;align=left;verticalAlign=top;spacingLeft=4;spacingRight=4;overflow=hidden;rotatable=0;points=[[0,0.5],[1,0.5]];portConstraint=eastwest;" parent="mvdX4LRs8X7vJDpDzA3B-0" vertex="1">
                    <mxGeometry y="26" width="430" height="44" as="geometry"/>
                </mxCell>
                <mxCell id="mvdX4LRs8X7vJDpDzA3B-2" value="" style="line;strokeWidth=1;fillColor=none;align=left;verticalAlign=middle;spacingTop=-1;spacingLeft=3;spacingRight=3;rotatable=0;labelPosition=right;points=[];portConstraint=eastwest;" parent="mvdX4LRs8X7vJDpDzA3B-0" vertex="1">
                    <mxGeometry y="70" width="430" height="8" as="geometry"/>
                </mxCell>
                <mxCell id="mvdX4LRs8X7vJDpDzA3B-3" value="+ Pelicula ( )&#10;+ Pelicula (id, nombre_pelicula. duracion, genero, calificacion, fecha_estreno)&#10;+ getDuracion(): int&#10;+ getGenero():string&#10;+ agregarPelicula(peli:Pelicula*)" style="text;strokeColor=none;fillColor=none;align=left;verticalAlign=top;spacingLeft=4;spacingRight=4;overflow=hidden;rotatable=0;points=[[0,0.5],[1,0.5]];portConstraint=eastwest;" parent="mvdX4LRs8X7vJDpDzA3B-0" vertex="1">
                    <mxGeometry y="78" width="430" height="92" as="geometry"/>
                </mxCell>
                <mxCell id="iZNObUnaK5UAuj5KGu7X-0" value="" style="endArrow=diamondThin;endFill=0;endSize=24;html=1;exitX=0.5;exitY=0;exitDx=0;exitDy=0;entryX=0.55;entryY=1.009;entryDx=0;entryDy=0;entryPerimeter=0;" parent="FiDUl4p-JCGd17M9LX08-1" source="GW1StQTnTIdHxi2I7VkY-0" target="T_MIQqRZn0Wsp7qm4aTt-3" edge="1">
                    <mxGeometry width="160" relative="1" as="geometry">
                        <mxPoint x="480" y="780" as="sourcePoint"/>
                        <mxPoint x="250.18000000000006" y="1070" as="targetPoint"/>
                        <Array as="points"/>
                    </mxGeometry>
                </mxCell>
                <mxCell id="iZNObUnaK5UAuj5KGu7X-1" value="" style="endArrow=diamondThin;endFill=0;endSize=24;html=1;exitX=0.5;exitY=0;exitDx=0;exitDy=0;entryX=-0.026;entryY=0.423;entryDx=0;entryDy=0;entryPerimeter=0;" parent="FiDUl4p-JCGd17M9LX08-1" source="T_MIQqRZn0Wsp7qm4aTt-0" target="xdg_02j6VJrPFdWVASHq-0" edge="1">
                    <mxGeometry width="160" relative="1" as="geometry">
                        <mxPoint x="265" y="770" as="sourcePoint"/>
                        <mxPoint x="480" y="403" as="targetPoint"/>
                        <Array as="points">
                            <mxPoint x="250" y="418"/>
                        </Array>
                    </mxGeometry>
                </mxCell>
                <mxCell id="iZNObUnaK5UAuj5KGu7X-2" value="" style="endArrow=diamondThin;endFill=0;endSize=24;html=1;entryX=1.021;entryY=0.423;entryDx=0;entryDy=0;exitX=0.5;exitY=0;exitDx=0;exitDy=0;entryPerimeter=0;" parent="FiDUl4p-JCGd17M9LX08-1" source="mvdX4LRs8X7vJDpDzA3B-0" target="xdg_02j6VJrPFdWVASHq-0" edge="1">
                    <mxGeometry width="160" relative="1" as="geometry">
                        <mxPoint x="310" y="760" as="sourcePoint"/>
                        <mxPoint x="640" y="403" as="targetPoint"/>
                        <Array as="points">
                            <mxPoint x="865" y="418"/>
                        </Array>
                    </mxGeometry>
                </mxCell>
                <mxCell id="iZNObUnaK5UAuj5KGu7X-3" value="Video" style="swimlane;fontStyle=0;childLayout=stackLayout;horizontal=1;startSize=26;fillColor=none;horizontalStack=0;resizeParent=1;resizeParentMax=0;resizeLast=0;collapsible=1;marginBottom=0;strokeColor=default;" parent="FiDUl4p-JCGd17M9LX08-1" vertex="1">
                    <mxGeometry x="480" y="540" width="210" height="200" as="geometry"/>
                </mxCell>
                <mxCell id="iZNObUnaK5UAuj5KGu7X-4" value="+ id:string&#10;+ nombre:string&#10;+ fecha_estreno() string&#10;+ calificacion(): int" style="text;strokeColor=none;fillColor=none;align=left;verticalAlign=top;spacingLeft=4;spacingRight=4;overflow=hidden;rotatable=0;points=[[0,0.5],[1,0.5]];portConstraint=eastwest;" parent="iZNObUnaK5UAuj5KGu7X-3" vertex="1">
                    <mxGeometry y="26" width="210" height="84" as="geometry"/>
                </mxCell>
                <mxCell id="iZNObUnaK5UAuj5KGu7X-5" value="+ Video()&#10;+ getId():string&#10;+ getNombre():string&#10;+ getFechaE(): string&#10;+ setCalifPeli(double colif): double&#10;" style="text;strokeColor=default;fillColor=none;align=left;verticalAlign=top;spacingLeft=4;spacingRight=4;overflow=hidden;rotatable=0;points=[[0,0.5],[1,0.5]];portConstraint=eastwest;" parent="iZNObUnaK5UAuj5KGu7X-3" vertex="1">
                    <mxGeometry y="110" width="210" height="90" as="geometry"/>
                </mxCell>
                <mxCell id="o8nyL9neEUp9HJr-DIkO-11" value="" style="endArrow=diamondThin;endFill=0;endSize=24;html=1;entryX=0.468;entryY=1.013;entryDx=0;entryDy=0;entryPerimeter=0;exitX=0.429;exitY=-0.013;exitDx=0;exitDy=0;exitPerimeter=0;" parent="FiDUl4p-JCGd17M9LX08-1" target="y2TpvjQaVLHb-VL8xuH1-3" edge="1">
                    <mxGeometry width="160" relative="1" as="geometry">
                        <mxPoint x="548.6400000000001" y="348.4659999999999" as="sourcePoint"/>
                        <mxPoint x="520" y="428.0000000000002" as="targetPoint"/>
                        <Array as="points">
                            <mxPoint x="549" y="310"/>
                        </Array>
                    </mxGeometry>
                </mxCell>
                <mxCell id="T_MIQqRZn0Wsp7qm4aTt-0" value="Serie" style="swimlane;fontStyle=1;align=center;verticalAlign=top;childLayout=stackLayout;horizontal=1;startSize=26;horizontalStack=0;resizeParent=1;resizeParentMax=0;resizeLast=0;collapsible=1;marginBottom=0;" parent="FiDUl4p-JCGd17M9LX08-1" vertex="1">
                    <mxGeometry x="55" y="480" width="390" height="220" as="geometry"/>
                </mxCell>
                <mxCell id="T_MIQqRZn0Wsp7qm4aTt-1" value="-episodio: vector &lt;Episodio&gt;&#10;-id_serie: string&#10;-nombre_serie: string&#10;-genero_serie: string" style="text;strokeColor=none;fillColor=none;align=left;verticalAlign=top;spacingLeft=4;spacingRight=4;overflow=hidden;rotatable=0;points=[[0,0.5],[1,0.5]];portConstraint=eastwest;" parent="T_MIQqRZn0Wsp7qm4aTt-0" vertex="1">
                    <mxGeometry y="26" width="390" height="74" as="geometry"/>
                </mxCell>
                <mxCell id="T_MIQqRZn0Wsp7qm4aTt-2" value="" style="line;strokeWidth=1;fillColor=none;align=left;verticalAlign=middle;spacingTop=-1;spacingLeft=3;spacingRight=3;rotatable=0;labelPosition=right;points=[];portConstraint=eastwest;" parent="T_MIQqRZn0Wsp7qm4aTt-0" vertex="1">
                    <mxGeometry y="100" width="390" height="8" as="geometry"/>
                </mxCell>
                <mxCell id="T_MIQqRZn0Wsp7qm4aTt-3" value="+ Serie()&#10;+ Serie(idSerie:str, nombreSerie:str, generoSerie:str)&#10;+ getIdSerie():string&#10;+ getNombreSerie():string&#10;+ getGeneroSerie():string&#10;+ agregarEpisodio(serie:Serie *)&#10;+ display(): void&#10;" style="text;strokeColor=none;fillColor=none;align=left;verticalAlign=top;spacingLeft=4;spacingRight=4;overflow=hidden;rotatable=0;points=[[0,0.5],[1,0.5]];portConstraint=eastwest;" parent="T_MIQqRZn0Wsp7qm4aTt-0" vertex="1">
                    <mxGeometry y="108" width="390" height="112" as="geometry"/>
                </mxCell>
                <mxCell id="2hrAFd8VoMEE1bOyo6JW-0" value="" style="endArrow=block;endSize=16;endFill=0;html=1;entryX=1.011;entryY=-0.025;entryDx=0;entryDy=0;entryPerimeter=0;exitX=0.25;exitY=0;exitDx=0;exitDy=0;" parent="FiDUl4p-JCGd17M9LX08-1" source="mvdX4LRs8X7vJDpDzA3B-0" target="iZNObUnaK5UAuj5KGu7X-5" edge="1">
                    <mxGeometry width="160" relative="1" as="geometry">
                        <mxPoint x="770" y="760" as="sourcePoint"/>
                        <mxPoint x="1020" y="670" as="targetPoint"/>
                    </mxGeometry>
                </mxCell>
                <mxCell id="2hrAFd8VoMEE1bOyo6JW-1" value="" style="endArrow=block;endSize=16;endFill=0;html=1;entryX=0.291;entryY=1.049;entryDx=0;entryDy=0;entryPerimeter=0;exitX=0.903;exitY=-0.019;exitDx=0;exitDy=0;exitPerimeter=0;" parent="FiDUl4p-JCGd17M9LX08-1" source="GW1StQTnTIdHxi2I7VkY-0" target="iZNObUnaK5UAuj5KGu7X-5" edge="1">
                    <mxGeometry width="160" relative="1" as="geometry">
                        <mxPoint x="510" y="940" as="sourcePoint"/>
                        <mxPoint x="702.31" y="647.75" as="targetPoint"/>
                    </mxGeometry>
                </mxCell>
                <mxCell id="xdg_02j6VJrPFdWVASHq-0" value="&lt;p style=&quot;margin: 0px ; margin-top: 4px ; text-align: center&quot;&gt;&lt;b&gt;Catalogo&lt;/b&gt;&lt;/p&gt;&lt;hr size=&quot;1&quot;&gt;&lt;p style=&quot;margin: 0px ; margin-left: 4px&quot;&gt;- lista_peliculas: vector &amp;lt;Peliculas&amp;gt;&lt;/p&gt;&lt;p style=&quot;margin: 0px ; margin-left: 4px&quot;&gt;- lista_series_ vector &amp;gt;Series&amp;gt;&lt;/p&gt;&lt;hr size=&quot;1&quot;&gt;&lt;p style=&quot;margin: 0px ; margin-left: 4px&quot;&gt;+ agregarSeries(Serie s):void&amp;nbsp;&lt;/p&gt;&lt;p style=&quot;margin: 0px ; margin-left: 4px&quot;&gt;+ agregarPelicula(pelicula p): void&lt;/p&gt;&lt;p style=&quot;margin: 0px ; margin-left: 4px&quot;&gt;+ display():void&amp;nbsp;&lt;/p&gt;" style="verticalAlign=top;align=left;overflow=fill;fontSize=12;fontFamily=Helvetica;html=1;" parent="FiDUl4p-JCGd17M9LX08-1" vertex="1">
                    <mxGeometry x="460" y="350" width="190" height="130" as="geometry"/>
                </mxCell>
            </root>
        </mxGraphModel>
    </diagram>
</mxfile>